<?xml version="1.0" encoding="utf-8"?>
<!-- Generator: Adobe Illustrator 15.1.0, SVG Export Plug-In . SVG Version: 6.00 Build 0)  -->
<!DOCTYPE svg PUBLIC "-//W3C//DTD SVG 1.1//EN" "http://www.w3.org/Graphics/SVG/1.1/DTD/svg11.dtd">
<svg version="1.1" id="Layer_1" xmlns="http://www.w3.org/2000/svg" xmlns:xlink="http://www.w3.org/1999/xlink" x="0px" y="0px"
	 width="100px" height="230px" viewBox="0 0 100 230" enable-background="new 0 0 100 230" xml:space="preserve">
<g>
	<path fill="#FFFFFF" d="M48.472,150.894c0,13.069-0.897,26.924-6.76,35.345c0.715,0.77,2.486,1.329,5.161,1.329
		c2.841,0,6.393-3.548,7.104-6.433c0.182-0.665,1.781-0.665,1.781,0c0,6.762-4.448,13.519-11.913,13.519
		c-3.736,0-6.756-0.886-9.249-2.103c-2.486,1.325-5.859,2.103-9.948,2.103C3.315,194.653,1,171.832,1,150.894
		c0-15.953,2.315-39.329,23.647-39.329C46.157,111.564,48.472,134.94,48.472,150.894z M15.577,151.005
		c0,11.522,0.706,19.944,1.778,27.365c1.776-1.11,3.911-1.994,6.574-1.994c2.673,0,5.515,0.668,7.655,2.321
		c1.416-5.649,2.306-14.734,2.306-27.692c0-24.596-3.91-33.903-9.243-33.903C19.489,117.102,15.577,126.409,15.577,151.005z
		 M28.735,186.238c-1.073-3.107-2.85-5.327-6.22-5.327c-1.959,0-3.565,0.999-3.565,2.552c0,2.882,3.38,5.647,5.697,5.647
		C26.247,189.11,27.487,188.338,28.735,186.238z"/>
	<path fill="#FFFFFF" d="M96.295,139.817c0,0.548-0.352,0.986-1.063,0.986c-0.891,0-1.243-0.545-1.419-1.214
		c-2.139-9.307-7.297-22.488-16.356-22.488c-7.818,0-9.25,10.522-9.25,33.903c0,33.239,3.917,38.105,11.915,38.105
		c9.778,0,13.513-20.386,13.513-21.379c0-0.561,0.528-0.882,1.423-0.882c0.887,0,1.238,0.321,1.238,0.994
		c0,16.4-3.909,26.81-19.551,26.81c-20.798,0-23.109-25.261-23.109-43.76c0-13.63,0.885-39.329,23.109-39.329
		c2.847,0,5.868,0.989,8.534,2.332c1.069,0.547,2.132,0.656,3.019,0.656c0.891,0,2.129-0.445,3.377-1.324
		c1.072-0.783,2.488-1.664,3.383-1.664c1.062,0,1.238,0.773,1.238,1.881V139.817z"/>
	<g>
		<path fill="#FFFFFF" d="M16.682,204.305c0.41,0,0.588,0.181,0.631,0.431l2.986,11.059h0.091l2.759-11.059
			c0.045-0.25,0.179-0.431,0.497-0.431h5.656c0.18,0,0.273,0.073,0.273,0.123c0,0.111-0.19,0.179-0.318,0.256l-1.136,0.747
			c-0.273,0.206-0.356,0.403-0.356,0.714v15.479c0,0.302,0.083,0.51,0.356,0.709l1.136,0.746c0.128,0.07,0.318,0.152,0.318,0.257
			c0,0.044-0.093,0.122-0.273,0.122h-6.331c-0.228,0-0.273-0.078-0.273-0.122c0-0.104,0.179-0.187,0.311-0.289l0.957-0.687
			c0.272-0.204,0.317-0.435,0.317-0.736v-12.366h-0.094l-3.44,13.997c-0.042,0.125-0.134,0.203-0.359,0.203h-0.988
			c-0.14,0-0.182-0.101-0.233-0.227l-3.658-13.974h-0.093v12.366c0,0.302,0.042,0.532,0.315,0.736l0.949,0.687
			c0.14,0.103,0.315,0.185,0.315,0.289c0,0.044-0.084,0.122-0.27,0.122h-5.561c-0.177,0-0.27-0.078-0.27-0.122
			c0-0.104,0.225-0.187,0.315-0.257l1.131-0.746c0.267-0.199,0.396-0.407,0.396-0.709v-15.479c0-0.311-0.13-0.508-0.396-0.714
			l-1.131-0.747c-0.091-0.077-0.315-0.145-0.315-0.256c0-0.05,0.093-0.123,0.27-0.123H16.682z"/>
		<path fill="#FFFFFF" d="M36.216,213.06h1.001c0.228,0,0.411-0.053,0.497-0.167l1.579-1.799c0.091-0.1,0.134-0.152,0.272-0.152
			c0.134,0,0.182,0.053,0.182,0.152v5.414c0,0.086-0.047,0.137-0.182,0.137c-0.181,0-0.223-0.08-0.307-0.181l-1.544-1.869
			c-0.086-0.13-0.27-0.177-0.497-0.177h-1.001v7.763h2.58c0.588,0,1.042-0.153,1.222-0.463l2.438-4.897
			c0.045-0.106,0.185-0.159,0.318-0.159c0.14,0,0.224,0.079,0.224,0.159v6.41c0,0.126-0.136,0.227-0.357,0.227H30.932
			c-0.185,0-0.272-0.078-0.272-0.153c0-0.073,0.228-0.131,0.318-0.226l1.355-0.746c0.318-0.177,0.406-0.407,0.406-0.709v-15.479
			c0-0.311-0.088-0.536-0.406-0.714l-1.355-0.747c-0.091-0.077-0.318-0.145-0.318-0.229c0-0.076,0.088-0.149,0.272-0.149h11.709
			c0.182,0,0.357,0.104,0.357,0.234v6.35c0,0.105-0.084,0.159-0.224,0.159c-0.176,0-0.318-0.076-0.357-0.182l-2.447-4.802
			c-0.182-0.325-0.585-0.484-1.173-0.484h-2.58V213.06z"/>
		<path fill="#FFFFFF" d="M50.19,221.623c0,0.302,0.091,0.532,0.416,0.709l1.348,0.746c0.093,0.07,0.319,0.152,0.319,0.226
			c0,0.075-0.085,0.153-0.27,0.153h-7.098c-0.186,0-0.279-0.078-0.279-0.153c0-0.073,0.23-0.155,0.324-0.226l1.354-0.746
			c0.313-0.177,0.411-0.407,0.411-0.709v-15.479c0-0.311-0.098-0.536-0.411-0.714l-1.354-0.747
			c-0.094-0.077-0.324-0.145-0.324-0.229c0-0.076,0.094-0.149,0.279-0.149h5.648c4.702,0,7.143,1.404,7.143,4.721
			c0,2.84-1.762,3.981-3.345,4.551c1.538,0.461,2.893,1.447,2.893,2.861v5.335c0,0.179,0.182,0.331,0.405,0.462l1.454,0.868
			c0.177,0.098,0.36,0.201,0.36,0.276c0,0.078-0.221,0.078-0.448,0.078h-2.353c-2.09,0-2.898-0.768-2.898-1.628v-5.497
			c0-1.128-1.22-1.963-2.802-1.963H50.19V221.623z M50.19,213.091h0.683c2.22,0,3.113-0.993,3.113-4.065
			c0-2.6-0.894-3.445-3.113-3.445H50.19V213.091z"/>
		<path fill="#FFFFFF" d="M68.639,215.308c0-0.249-0.176-0.41-0.494-0.557l-1.265-0.614c-0.176-0.1-0.227-0.152-0.227-0.248
			c0-0.103,0.138-0.163,0.366-0.163h6.695c0.179,0,0.312,0.061,0.312,0.163c0,0.096-0.095,0.148-0.224,0.248l-1.313,0.614
			c-0.318,0.126-0.455,0.308-0.455,0.557v8.027c0,0.068-0.088,0.122-0.225,0.122c-0.179,0-0.363-0.054-0.451-0.101l-1.364-0.689
			c-0.17-0.079-0.26-0.105-0.446-0.105c-0.137,0-0.276,0.026-0.455,0.105c-0.949,0.481-1.852,0.79-2.848,0.79
			c-5.647,0-5.877-5.818-5.877-10.082c0-3.141,0.229-9.07,5.789-9.07c1.495,0,2.391,0.379,2.849,0.585
			c0.179,0.077,0.5,0.151,0.679,0.151c0.224,0,0.679-0.173,1.128-0.404c0.405-0.209,0.679-0.332,0.91-0.332
			c0.224,0,0.312,0.181,0.312,0.431v6.131c0,0.105-0.088,0.182-0.225,0.182c-0.179,0-0.318-0.106-0.405-0.261
			c-0.949-1.913-2.903-5.207-4.882-5.207c-1.897,0-2.447,2.424-2.447,7.814c0,7.354,0.55,8.786,2.17,8.786
			c1.407,0,2.393-0.972,2.393-3.398V215.308z"/>
		<path fill="#FFFFFF" d="M80.138,213.06h0.994c0.224,0,0.402-0.053,0.486-0.167l1.583-1.799c0.101-0.1,0.14-0.152,0.276-0.152
			c0.14,0,0.185,0.053,0.185,0.152v5.414c0,0.086-0.045,0.137-0.185,0.137c-0.176,0-0.224-0.08-0.315-0.181l-1.544-1.869
			c-0.084-0.13-0.263-0.177-0.486-0.177h-0.994v7.763h2.577c0.587,0,1.036-0.153,1.215-0.463l2.44-4.897
			c0.045-0.106,0.185-0.159,0.324-0.159c0.131,0,0.222,0.079,0.222,0.159v6.41c0,0.126-0.14,0.227-0.361,0.227H74.837
			c-0.179,0-0.264-0.078-0.264-0.153c0-0.073,0.228-0.131,0.312-0.226l1.365-0.746c0.309-0.177,0.403-0.407,0.403-0.709v-15.479
			c0-0.311-0.095-0.536-0.403-0.714l-1.365-0.747c-0.084-0.077-0.312-0.145-0.312-0.229c0-0.076,0.085-0.149,0.264-0.149h11.718
			c0.183,0,0.361,0.104,0.361,0.234v6.35c0,0.105-0.091,0.159-0.222,0.159c-0.188,0-0.324-0.076-0.366-0.182l-2.448-4.802
			c-0.168-0.325-0.578-0.484-1.165-0.484h-2.577V213.06z"/>
	</g>
	<g>
		<g>
			<path fill="#FFFFFF" stroke="#FFFFFF" stroke-width="3.2554" stroke-linejoin="round" d="M50.665,49.555L10.449,4.304v90.498
				h80.435V4.304L50.665,49.555z M12.405,9.448l36.96,41.571l-36.96,41.576V9.448z M14.8,92.845l35.865-40.349l35.87,40.349H14.8z
				 M51.975,51.019L88.938,9.448v83.147L51.975,51.019z"/>
		</g>
		<polygon fill="#FFFFFF" stroke="#FFFFFF" stroke-miterlimit="10" points="27.563,91.459 55.365,60.187 56.904,61.917 
			30.64,91.459 		"/>
		<polygon fill="#FFFFFF" stroke="#FFFFFF" stroke-miterlimit="10" points="37.666,91.459 60.416,65.857 61.954,67.6 40.75,91.459 
					"/>
		<polygon fill="#FFFFFF" stroke="#FFFFFF" stroke-miterlimit="10" points="47.766,91.459 65.474,71.544 67.003,73.282 
			50.84,91.459 		"/>
		<polygon fill="#FFFFFF" stroke="#FFFFFF" stroke-miterlimit="10" points="57.873,91.459 70.523,77.232 72.062,78.965 
			60.957,91.459 		"/>
		<polygon fill="#FFFFFF" stroke="#FFFFFF" stroke-miterlimit="10" points="67.977,91.459 75.574,82.917 77.111,84.649 
			71.057,91.459 		"/>
		<polygon fill="#FFFFFF" stroke="#FFFFFF" stroke-miterlimit="10" points="78.105,91.459 81.06,88.133 84.021,91.459 		"/>
	</g>
</g>
</svg>
